<mxfile host="app.diagrams.net" modified="2024-01-16T17:57:04.138Z" agent="Mozilla/5.0 (Windows NT 10.0; Win64; x64) AppleWebKit/537.36 (KHTML, like Gecko) Chrome/120.0.0.0 Safari/537.36 Edg/120.0.0.0" etag="cg2RfyNpZUjHYcmieRf8" version="22.1.19" type="device">
  <diagram name="Page-1" id="2NpM1e2C0CC8Nzj38QO_">
    <mxGraphModel dx="541" dy="759" grid="1" gridSize="10" guides="1" tooltips="1" connect="1" arrows="1" fold="1" page="1" pageScale="1" pageWidth="850" pageHeight="1100" math="0" shadow="0">
      <root>
        <mxCell id="0" />
        <mxCell id="1" parent="0" />
        <mxCell id="ZhYpXPJk56ekqk_N__Iw-12" style="edgeStyle=orthogonalEdgeStyle;rounded=0;orthogonalLoop=1;jettySize=auto;html=1;entryX=0;entryY=0.5;entryDx=0;entryDy=0;" edge="1" parent="1" source="ZhYpXPJk56ekqk_N__Iw-2" target="ZhYpXPJk56ekqk_N__Iw-9">
          <mxGeometry relative="1" as="geometry" />
        </mxCell>
        <mxCell id="ZhYpXPJk56ekqk_N__Iw-21" value="1,0,L" style="edgeLabel;html=1;align=center;verticalAlign=middle;resizable=0;points=[];" vertex="1" connectable="0" parent="ZhYpXPJk56ekqk_N__Iw-12">
          <mxGeometry x="-0.6153" y="2" relative="1" as="geometry">
            <mxPoint x="18" y="-8" as="offset" />
          </mxGeometry>
        </mxCell>
        <mxCell id="ZhYpXPJk56ekqk_N__Iw-23" style="edgeStyle=orthogonalEdgeStyle;rounded=0;orthogonalLoop=1;jettySize=auto;html=1;exitX=0.5;exitY=0;exitDx=0;exitDy=0;" edge="1" parent="1" source="ZhYpXPJk56ekqk_N__Iw-2" target="ZhYpXPJk56ekqk_N__Iw-26">
          <mxGeometry relative="1" as="geometry">
            <mxPoint x="319.68965517241384" y="250" as="targetPoint" />
          </mxGeometry>
        </mxCell>
        <mxCell id="ZhYpXPJk56ekqk_N__Iw-25" value="&#39;_&#39;,&#39;_&#39;,R" style="edgeLabel;html=1;align=center;verticalAlign=middle;resizable=0;points=[];" vertex="1" connectable="0" parent="ZhYpXPJk56ekqk_N__Iw-23">
          <mxGeometry x="0.0391" y="1" relative="1" as="geometry">
            <mxPoint x="-19" as="offset" />
          </mxGeometry>
        </mxCell>
        <mxCell id="ZhYpXPJk56ekqk_N__Iw-2" value="q0" style="ellipse;whiteSpace=wrap;html=1;" vertex="1" parent="1">
          <mxGeometry x="290" y="290" width="60" height="60" as="geometry" />
        </mxCell>
        <mxCell id="ZhYpXPJk56ekqk_N__Iw-14" style="edgeStyle=orthogonalEdgeStyle;rounded=0;orthogonalLoop=1;jettySize=auto;html=1;entryX=1;entryY=0;entryDx=0;entryDy=0;exitX=1;exitY=1;exitDx=0;exitDy=0;" edge="1" parent="1" source="ZhYpXPJk56ekqk_N__Iw-9" target="ZhYpXPJk56ekqk_N__Iw-9">
          <mxGeometry relative="1" as="geometry">
            <mxPoint x="570" y="350" as="targetPoint" />
            <Array as="points">
              <mxPoint x="490" y="341" />
              <mxPoint x="490" y="299" />
            </Array>
          </mxGeometry>
        </mxCell>
        <mxCell id="ZhYpXPJk56ekqk_N__Iw-29" value="0,0,L&lt;br&gt;1,1,L" style="edgeLabel;html=1;align=center;verticalAlign=middle;resizable=0;points=[];" vertex="1" connectable="0" parent="ZhYpXPJk56ekqk_N__Iw-14">
          <mxGeometry x="0.0765" y="-2" relative="1" as="geometry">
            <mxPoint x="18" y="4" as="offset" />
          </mxGeometry>
        </mxCell>
        <mxCell id="ZhYpXPJk56ekqk_N__Iw-17" style="edgeStyle=orthogonalEdgeStyle;rounded=0;orthogonalLoop=1;jettySize=auto;html=1;entryX=0.5;entryY=0;entryDx=0;entryDy=0;" edge="1" parent="1" source="ZhYpXPJk56ekqk_N__Iw-9" target="ZhYpXPJk56ekqk_N__Iw-10">
          <mxGeometry relative="1" as="geometry" />
        </mxCell>
        <mxCell id="ZhYpXPJk56ekqk_N__Iw-30" value="&#39;_&#39;,&#39;_&#39;,L" style="edgeLabel;html=1;align=center;verticalAlign=middle;resizable=0;points=[];" vertex="1" connectable="0" parent="ZhYpXPJk56ekqk_N__Iw-17">
          <mxGeometry x="-0.1738" y="1" relative="1" as="geometry">
            <mxPoint x="19" as="offset" />
          </mxGeometry>
        </mxCell>
        <mxCell id="ZhYpXPJk56ekqk_N__Iw-9" value="q1" style="ellipse;whiteSpace=wrap;html=1;" vertex="1" parent="1">
          <mxGeometry x="410" y="290" width="60" height="60" as="geometry" />
        </mxCell>
        <mxCell id="ZhYpXPJk56ekqk_N__Iw-16" style="edgeStyle=orthogonalEdgeStyle;rounded=0;orthogonalLoop=1;jettySize=auto;html=1;entryX=1;entryY=1;entryDx=0;entryDy=0;exitX=1;exitY=0;exitDx=0;exitDy=0;" edge="1" parent="1" source="ZhYpXPJk56ekqk_N__Iw-10" target="ZhYpXPJk56ekqk_N__Iw-10">
          <mxGeometry relative="1" as="geometry">
            <mxPoint x="560" y="570" as="targetPoint" />
            <Array as="points">
              <mxPoint x="461" y="410" />
              <mxPoint x="490" y="410" />
              <mxPoint x="490" y="451" />
            </Array>
          </mxGeometry>
        </mxCell>
        <mxCell id="ZhYpXPJk56ekqk_N__Iw-31" value="1,0,L" style="edgeLabel;html=1;align=center;verticalAlign=middle;resizable=0;points=[];" vertex="1" connectable="0" parent="ZhYpXPJk56ekqk_N__Iw-16">
          <mxGeometry x="-0.0695" relative="1" as="geometry">
            <mxPoint x="20" y="3" as="offset" />
          </mxGeometry>
        </mxCell>
        <mxCell id="ZhYpXPJk56ekqk_N__Iw-18" style="edgeStyle=orthogonalEdgeStyle;rounded=0;orthogonalLoop=1;jettySize=auto;html=1;entryX=1;entryY=0.5;entryDx=0;entryDy=0;" edge="1" parent="1" source="ZhYpXPJk56ekqk_N__Iw-10" target="ZhYpXPJk56ekqk_N__Iw-11">
          <mxGeometry relative="1" as="geometry" />
        </mxCell>
        <mxCell id="ZhYpXPJk56ekqk_N__Iw-32" value="0,1,R&lt;br&gt;&#39;_&#39;,1,R" style="edgeLabel;html=1;align=center;verticalAlign=middle;resizable=0;points=[];" vertex="1" connectable="0" parent="ZhYpXPJk56ekqk_N__Iw-18">
          <mxGeometry x="-0.2885" y="-3" relative="1" as="geometry">
            <mxPoint x="-9" y="23" as="offset" />
          </mxGeometry>
        </mxCell>
        <mxCell id="ZhYpXPJk56ekqk_N__Iw-10" value="q2" style="ellipse;whiteSpace=wrap;html=1;" vertex="1" parent="1">
          <mxGeometry x="410" y="400" width="60" height="60" as="geometry" />
        </mxCell>
        <mxCell id="ZhYpXPJk56ekqk_N__Iw-15" style="edgeStyle=orthogonalEdgeStyle;rounded=0;orthogonalLoop=1;jettySize=auto;html=1;entryX=0;entryY=1;entryDx=0;entryDy=0;exitX=0;exitY=0;exitDx=0;exitDy=0;" edge="1" parent="1" source="ZhYpXPJk56ekqk_N__Iw-11" target="ZhYpXPJk56ekqk_N__Iw-11">
          <mxGeometry relative="1" as="geometry">
            <mxPoint x="250" y="520" as="targetPoint" />
            <Array as="points">
              <mxPoint x="270" y="409" />
              <mxPoint x="270" y="451" />
            </Array>
          </mxGeometry>
        </mxCell>
        <mxCell id="ZhYpXPJk56ekqk_N__Iw-34" value="0,0,L&lt;br&gt;1,1,L" style="edgeLabel;html=1;align=center;verticalAlign=middle;resizable=0;points=[];" vertex="1" connectable="0" parent="ZhYpXPJk56ekqk_N__Iw-15">
          <mxGeometry x="0.0683" y="-1" relative="1" as="geometry">
            <mxPoint x="-19" y="-3" as="offset" />
          </mxGeometry>
        </mxCell>
        <mxCell id="ZhYpXPJk56ekqk_N__Iw-19" style="edgeStyle=orthogonalEdgeStyle;rounded=0;orthogonalLoop=1;jettySize=auto;html=1;entryX=0.5;entryY=1;entryDx=0;entryDy=0;" edge="1" parent="1" source="ZhYpXPJk56ekqk_N__Iw-11" target="ZhYpXPJk56ekqk_N__Iw-2">
          <mxGeometry relative="1" as="geometry" />
        </mxCell>
        <mxCell id="ZhYpXPJk56ekqk_N__Iw-35" value="&#39;_&#39;,&#39;_&#39;,L" style="edgeLabel;html=1;align=center;verticalAlign=middle;resizable=0;points=[];" vertex="1" connectable="0" parent="ZhYpXPJk56ekqk_N__Iw-19">
          <mxGeometry x="-0.1021" relative="1" as="geometry">
            <mxPoint x="-20" as="offset" />
          </mxGeometry>
        </mxCell>
        <mxCell id="ZhYpXPJk56ekqk_N__Iw-11" value="q4" style="ellipse;whiteSpace=wrap;html=1;" vertex="1" parent="1">
          <mxGeometry x="290" y="400" width="60" height="60" as="geometry" />
        </mxCell>
        <mxCell id="ZhYpXPJk56ekqk_N__Iw-13" style="edgeStyle=orthogonalEdgeStyle;rounded=0;orthogonalLoop=1;jettySize=auto;html=1;entryX=0;entryY=0;entryDx=0;entryDy=0;exitX=0;exitY=1;exitDx=0;exitDy=0;" edge="1" parent="1" source="ZhYpXPJk56ekqk_N__Iw-2" target="ZhYpXPJk56ekqk_N__Iw-2">
          <mxGeometry relative="1" as="geometry">
            <mxPoint x="259.97" y="240" as="sourcePoint" />
            <mxPoint x="229.97" y="270" as="targetPoint" />
            <Array as="points">
              <mxPoint x="270" y="341" />
              <mxPoint x="270" y="299" />
            </Array>
          </mxGeometry>
        </mxCell>
        <mxCell id="ZhYpXPJk56ekqk_N__Iw-20" value="0,0,R" style="edgeLabel;html=1;align=center;verticalAlign=middle;resizable=0;points=[];" vertex="1" connectable="0" parent="ZhYpXPJk56ekqk_N__Iw-13">
          <mxGeometry x="-0.3834" relative="1" as="geometry">
            <mxPoint x="-20" y="-19" as="offset" />
          </mxGeometry>
        </mxCell>
        <mxCell id="ZhYpXPJk56ekqk_N__Iw-26" value="q_accept" style="ellipse;shape=doubleEllipse;whiteSpace=wrap;html=1;aspect=fixed;" vertex="1" parent="1">
          <mxGeometry x="285" y="180" width="70" height="70" as="geometry" />
        </mxCell>
      </root>
    </mxGraphModel>
  </diagram>
</mxfile>
